<?xml version="1.0" standalone="no"?>
<!DOCTYPE svg PUBLIC "-//W3C//DTD SVG 20010904//EN"
 "http://www.w3.org/TR/2001/REC-SVG-20010904/DTD/svg10.dtd">
<svg version="1.0" xmlns="http://www.w3.org/2000/svg"
 width="500.000000pt" height="500.000000pt" viewBox="0 0 500.000000 500.000000"
 preserveAspectRatio="xMidYMid meet">
<metadata>
Created by potrace 1.11, written by Peter Selinger 2001-2013
</metadata>
<g transform="translate(0.000000,500.000000) scale(0.100000,-0.100000)"
fill="#000000" stroke="none">
<path d="M412 4980 c-103 -27 -166 -64 -247 -145 -82 -82 -118 -144 -145 -251
-20 -76 -20 -117 -20 -2084 0 -1967 0 -2008 20 -2084 27 -107 63 -169 145
-251 82 -82 144 -118 251 -145 76 -20 117 -20 2084 -20 1967 0 2008 0 2084 20
107 27 169 63 251 145 82 82 118 144 145 251 20 76 20 117 20 2084 0 1967 0
2008 -20 2084 -27 107 -63 169 -145 251 -82 82 -144 118 -251 145 -76 20 -116
20 -2088 19 -1948 0 -2013 -1 -2084 -19z m2212 -635 c105 -28 198 -101 259
-205 34 -59 1413 -2910 1439 -2974 32 -82 39 -138 24 -195 -26 -101 -110 -184
-266 -265 -229 -119 -354 -125 -484 -23 -33 27 -61 76 -194 346 -85 174 -165
340 -178 369 l-23 52 -701 0 -701 0 -23 -52 c-13 -29 -89 -186 -169 -350 -120
-245 -153 -304 -191 -343 -64 -63 -114 -85 -202 -85 -182 0 -486 172 -547 310
-27 61 -25 138 6 220 19 50 991 2070 1392 2894 44 90 72 133 114 176 117 119
285 166 445 125z"/>
<path d="M2334 2549 c-87 -182 -160 -335 -162 -340 -2 -5 136 -9 327 -9 182 0
331 2 331 4 0 7 -329 676 -333 676 -2 0 -75 -149 -163 -331z"/>
</g>
</svg>
